<svg xmlns="http://www.w3.org/2000/svg" viewBox="0 0 115.17 75.54"><defs><style>.cls-1{fill:none;stroke-width:4px;}.cls-1,.cls-2{stroke:#233974;stroke-miterlimit:10;}.cls-2,.cls-4{fill:#233974;}.cls-2{stroke-width:7px;}.cls-3{fill:#f7c317;}.cls-4{font-size:24px;font-family:NSSans, NS Sans;}</style></defs><title>postvakje</title><g id="Layer_2" data-name="Layer 2"><g id="Layer_1-2" data-name="Layer 1"><path class="cls-1" d="M25,18.68h0a23,23,0,0,1,23,23V73.54a0,0,0,0,1,0,0H2a0,0,0,0,1,0,0V41.7a23,23,0,0,1,23-23Z"/><path class="cls-1" d="M25,18.68H65A24.63,24.63,0,0,1,89.67,43.31V73.54H48"/><polyline class="cls-2" points="67.63 10.38 79.39 10.36 79.39 3.5 67.63 3.5 67.63 33.38"/><circle class="cls-3" cx="98.67" cy="26.5" r="16.5"/><text class="cls-4" transform="translate(91.82 35.46)">5</text></g></g></svg>