<svg xmlns="http://www.w3.org/2000/svg" viewBox="0 0 115.17 75.54"><defs><style>.cls-1,.cls-3,.cls-5{fill:#233974;}.cls-1,.cls-2,.cls-3{stroke:#233974;stroke-miterlimit:10;}.cls-1,.cls-2{stroke-width:4px;}.cls-2{fill:none;}.cls-3{stroke-width:7px;}.cls-4{fill:#f7c317;}.cls-5{font-size:24px;font-family:NSSans, NS Sans;}</style></defs><title>postvakje-2</title><g id="Layer_2" data-name="Layer 2"><g id="Layer_1-2" data-name="Layer 1"><path class="cls-1" d="M25,18.68h0a23,23,0,0,1,23,23V73.54a0,0,0,0,1,0,0H2a0,0,0,0,1,0,0V41.7a23,23,0,0,1,23-23Z"/><path class="cls-2" d="M48,73.54H89.67V43.31A24.63,24.63,0,0,0,65,18.68H25"/><polyline class="cls-3" points="67.63 10.38 79.39 10.36 79.39 3.5 67.63 3.5 67.63 33.38"/><circle class="cls-4" cx="98.67" cy="26.5" r="16.5"/><text class="cls-5" transform="translate(91.82 35.46)">5</text></g></g></svg>